<svg width="60" height="61" viewBox="0 0 60 61" fill="none" xmlns="http://www.w3.org/2000/svg">
<mask id="mask0_301_2321" style="mask-type:luminance" maskUnits="userSpaceOnUse" x="0" y="0" width="56" height="61">
<path fill-rule="evenodd" clip-rule="evenodd" d="M0 0.184082H55.0783V60.1747H0V0.184082Z" fill="white"/>
</mask>
<g mask="url(#mask0_301_2321)">
<path fill-rule="evenodd" clip-rule="evenodd" d="M24.1406 28.5435H35.8594C38.8477 28.5435 41.3117 26.306 41.6717 23.4153C47.2803 21.4389 51.0938 16.138 51.0938 10.0919V9.20752C51.0938 5.65346 48.2025 2.76221 44.6484 2.76221H41.7188V1.94189C41.7188 0.970801 40.932 0.184082 39.9609 0.184082H20.0391C19.068 0.184082 18.2812 0.970801 18.2812 1.94189V22.6841C18.2812 25.9202 20.9045 28.5435 24.1406 28.5435ZM44.6484 6.27783C46.2641 6.27783 47.5781 7.59189 47.5781 9.20752V10.0925C47.5781 14.1813 45.2564 17.816 41.7188 19.5847V6.27783H44.6484Z" fill="white"/>
<path fill-rule="evenodd" clip-rule="evenodd" d="M7.96875 52.2739H53.302C53.5511 51.8106 53.9038 51.3902 54.3634 51.0496C55.7252 50.0413 55.0116 47.8794 53.3167 47.8794H4.10156C1.83656 47.8794 0 49.716 0 51.981V56.0825C0 58.3481 1.83656 60.1841 4.10156 60.1841H53.3167C55.0116 60.1841 55.7252 58.0222 54.3634 57.0139C53.9038 56.6733 53.5511 56.2528 53.302 55.7896H8.01812C7.07219 55.7896 6.25734 55.0621 6.21281 54.1166C6.16516 53.1071 6.96953 52.2739 7.96875 52.2739Z" fill="white"/>
</g>
<path fill-rule="evenodd" clip-rule="evenodd" d="M55.8984 32.0591H6.68321C4.98836 32.0591 4.27477 34.221 5.63649 35.2292C6.09618 35.5699 6.44883 35.9903 6.69789 36.4536H52.0312C53.0304 36.4536 53.8348 37.2867 53.7871 38.2963C53.7426 39.2417 52.9277 39.9692 51.9818 39.9692H6.69789C6.44883 40.4325 6.09618 40.853 5.63649 41.193C4.27477 42.2019 4.98836 44.3638 6.68321 44.3638H55.8984C58.1634 44.3638 59.9999 42.5272 59.9999 40.2622V36.1606C59.9999 33.8956 58.1634 32.0591 55.8984 32.0591Z" fill="white"/>
</svg>
